<svg xmlns="http://www.w3.org/2000/svg" viewBox="0 0 841.9 595.3">
  <g fill="#61DAFB">
    <path d="M666.3 296.5c0 22.2-3.6 45-10.5 67.5 19.6 19.6 30.2 45.6 30.2 73.7 0 62.7-51.3 113.7-114.2 113.7-28.8 0-54.6-10.2-73.9-27.3-24.8 14.4-52.4 24.2-81.9 29.3C439.5 534.2 423 550 406.8 550c-13.3 0-26.2-8-37.6-21.7-14.6-17.5-28.4-38.4-41.3-62.1-9.4-16.8-18.1-33.3-26-49.3-22.2 7.7-47.7 13.1-74.2 15.9C218 434.6 193.1 421 176.3 404.2c-18.5-18.5-29.3-44.4-29.3-72.3 0-27.9 10.8-53.7 29.3-72.3 18.5-18.5 44.4-29.3 72.3-29.3 27.9 0 53.7 10.8 72.3 29.3 17.7 17.7 30.4 42.7 36.2 72 8.4-11.6 17.6-22.5 27.6-32.4 26.5-26.5 58.7-40.7 90.2-42.3 19.2-1 36.8 5.3 52.3 18.8 18.2-15.8 39.9-30.3 65.6-43.6 13.6-6.8 27.9-13 43.1-18.4 18.3-6.2 37.3-11.2 56.6-14.5-3.2 10.4-4.9 21.4-4.9 32.7 0 28.8 10.2 54.6 27.3 73.9 14.4-24.8 24.2-52.4 29.3-81.9C695.4 227 705 243.5 705 260c0 13.3-8 26.2-21.7 37.6-17.5 14.6-38.4 28.4-62.1 41.3-16.8 9.4-33.3 18.1-49.3 26-7.7-22.2-13.1-47.7-15.9-74.2-5.7 1.9-11.3 3.9-16.8 6-4.5 1.8-9 3.8-13.5 5.9-26.2 11.7-50.3 26.9-71.5 45.4-6.4 5.5-12.5 11.2-18.4 17.1-3.9-4.1-8-8.1-12.3-11.9-13.3-13.3-29.5-24-47.5-32.5-9.4-4.4-18.9-8.5-28.3-12.4-14.8-5.9-29.5-11.2-44-15.9-8.4-2.7-16.7-5.3-25-7.9-3.5-1-6.8-2-10.1-3-22.5-7.1-44.1-15.3-64.8-24.6 15.6-19.4 27.8-42.4 35.2-67.7 7.2-24.8 10.9-50.5 10.9-76.1 0-62.7-51.3-113.7-114.2-113.7-28.8 0-54.6 10.2-73.9 27.3C227 115.7 214.4 92 199.7 71c-5.7-8.1-11.8-15.8-18.4-23C181.6 57.3 180.8 57.7 180 58c-10.1 4.4-20.6 7.9-31.3 10.5C85.9 89.8 47.7 147.3 47.7 211.5c0 74.4 66.6 134.6 155.5 143.7 2.8.3 5.7.6 8.5.8-5.7 12.4-12.1 24.4-18.9 36-4.2 7.2-8.6 14.2-13.2 21-13.7 20.3-27.5 39.8-41.2 58.4C98.2 482.2 57 530.1 50 586.6h36.4c3.4-20.4 7.2-40.7 11.4-60.9 7.8-37 17.8-73.3 29.9-108.4C172.4 417.7 218 381 270 355c3.5-1.8 6.9-3.6 10.3-5.3 22.3-11.1 46.6-19.7 72.1-25.7 5.3-1.2 10.7-2.2 16.2-3.1 8.7-1.4 17.5-2.5 26.4-3.2 12.1-1 24.2-1.6 36.2-1.8 2.5 0 5-.1 7.4-.1 0-14.4 0-28.8-.2-43.2-9.2-1.4-18.3-2.7-27.2-4-14.1-2.1-28.2-4.6-42-7.6C278.4 123.4 211 185.3 200.7 250.2c-5.8 34.4 2.1 69.7 20.3 99.2 18.2 29.5 45.3 52.3 78.5 65.4 1.9.7 3.9 1.4 5.9 2.1-1.8-8.1-3.1-16.3-3.9-24.5-2.5-27.2 3.1-54.3 15.8-79.1 11.6-22.4 28.2-41.5 48.6-56.4 9.1-6.7 18.8-12.5 29-17.6C392.4 149 422 122.7 455 108.3 459.6 106.1 464.2 104 469 101.9c18.5-8 37.8-14.8 57.7-20.2 26.5-7.5 53.3-12.4 80.7-15.2 2.8-.3 5.6-.5 8.4-.8-3.2 5.8-6.2 11.8-9.1 17.7-13.1 26.6-27.6 52.4-43.3 77.3-2.1 3.4-4.2 6.8-6.4 10.1 1.6-1 3.3-1.9 5-2.8 20.8-11.4 41.5-21.8 62-31.2-23.2 25.1-45.4 52.3-66.3 80.3-22.1 29.6-42.7 60.7-61.7 92.9-9.2 15.5-18.1 31.2-26.5 47.1-4.6 9-9.1 18.1-13.5 27.2-7.4 15.2-14.5 30.6-21.3 46.1 8.3-2.8 16.4-5.9 24.4-9.1 17.2-7.3 34-15.3 50.5-23.9 5.7-2.9 11.4-5.8 17.1-8.7 17.2-8.9 34.4-18.1 51.5-27.5 10.2-5.6 20.3-11.3 30.3-17 15.6-8.8 31-17.8 46.2-27.1 6.1-3.6 12.1-7.3 18.1-11.1 2.6-1.6 5.2-3.2 7.8-4.8 16.4-10.1 32.6-20.6 48.6-31.3-9.3 28.5-20.4 56.3-33.2 83.4-6.5 13.8-13.3 27.5-20.3 41.1-4.3 8.4-8.6 16.8-12.9 25.1-11.8 22.6-24.2 45-37.2 67.2-13.1 22.4-26.9 44.6-41.4 66.7C388 539.8 339.6 590 300 623.3h21.8c2.3-8.1 4.5-16.2 6.8-24.3 17.6-62.7 37.1-125.1 58.5-186.8 12-35.7 24.7-71.3 38.1-106.6 13.4-35.3 27.6-70.5 42.6-105.4 5.1-11.8 10.3-23.5 15.6-35.1 6.3-13.9 12.6-27.7 18.9-41.4 8.1-17.4 16.3-34.7 24.6-51.9 7.1-14.8 14.3-29.6 21.6-44.4 3.5-7 7-13.9 10.5-20.9 2.8-5.5 5.7-11 8.5-16.5 5.1-10.1 10.3-20.1 15.5-30.2C566 74.1 597.1 23 637 23h36.4c3.4 20.4 7.2 40.7 11.4 60.9 7.8 37 17.8 73.3 29.9 108.4 12.1 35.1 28.2 68.8 48.4 100.5 20.2 31.7 44.6 61.4 72.8 89 3.5 3.4 7.1 6.7 10.7 10.1 20.8 19.8 43.5 38.4 68 55.5-8.7-29.1-18.7-57.8-29.9-85.9-11.2-28.1-23.4-55.8-36.6-82.8-6.6-13.4-13.5-26.6-20.5-39.8-3.5-6.7-7.1-13.4-10.7-20.1-2.8-5.5-5.7-11-8.5-16.5-5.1-10.1-10.3-20.1-15.5-30.2C667.2 175.1 678.2 185.8 687 196.5c7.7 9.4 14.5 19.5 20.5 30.1 4.1 7.2 8 14.5 11.7 21.8 1.4 2.8 2.8 5.6 4.1 8.5 2.2 4.8 4.4 9.7 6.5 14.5z" />
    <circle cx="420.9" cy="296.5" r="45.7" />
  </g>
</svg>
